<svg width="32" height="34" viewBox="0 0 32 34" fill="none" xmlns="http://www.w3.org/2000/svg">
<path d="M6.66667 10.9286C6.66667 10.6065 6.80714 10.2977 7.05719 10.0699C7.30724 9.84222 7.64638 9.71429 8 9.71429H18.6667C18.8773 9.71407 19.0849 9.75929 19.2727 9.84625C19.4604 9.93321 19.6228 10.0594 19.7467 10.2146C18.5707 10.6347 17.5333 11.3001 16.704 12.1429H8C7.64638 12.1429 7.30724 12.0149 7.05719 11.7872C6.80714 11.5595 6.66667 11.2506 6.66667 10.9286ZM14.6667 17H8C7.64638 17 7.30724 17.1279 7.05719 17.3557C6.80714 17.5834 6.66667 17.8922 6.66667 18.2143C6.66667 18.5363 6.80714 18.8452 7.05719 19.0729C7.30724 19.3006 7.64638 19.4286 8 19.4286H15.12C14.8267 18.6684 14.6667 17.85 14.6667 17ZM11.7547 31.5714H4C3.64638 31.5714 3.30724 31.4435 3.05719 31.2158C2.80714 30.9881 2.66667 30.6792 2.66667 30.3571V6.07143C2.66667 5.74938 2.80714 5.44052 3.05719 5.2128C3.30724 4.98508 3.64638 4.85714 4 4.85714H22.6667C23.0203 4.85714 23.3594 4.98508 23.6095 5.2128C23.8595 5.44052 24 5.74938 24 6.07143V9.81386C24.9573 9.95957 25.856 10.2631 26.6667 10.6881V6.07143C26.6667 5.10528 26.2452 4.17871 25.4951 3.49554C24.7449 2.81237 23.7275 2.42857 22.6667 2.42857V1.21429C22.6667 0.892237 22.5262 0.583379 22.2761 0.355656C22.0261 0.127933 21.687 0 21.3333 0C20.9797 0 20.6406 0.127933 20.3905 0.355656C20.1405 0.583379 20 0.892237 20 1.21429V2.42857H14.6667V1.21429C14.6667 0.892237 14.5262 0.583379 14.2761 0.355656C14.0261 0.127933 13.687 0 13.3333 0C12.9797 0 12.6406 0.127933 12.3905 0.355656C12.1405 0.583379 12 0.892237 12 1.21429V2.42857H6.66667V1.21429C6.66667 0.892237 6.52619 0.583379 6.27614 0.355656C6.02609 0.127933 5.68696 0 5.33333 0C4.97971 0 4.64057 0.127933 4.39052 0.355656C4.14048 0.583379 4 0.892237 4 1.21429V2.42857C2.93913 2.42857 1.92172 2.81237 1.17157 3.49554C0.421427 4.17871 0 5.10528 0 6.07143V30.3571C0 31.3233 0.421427 32.2499 1.17157 32.933C1.92172 33.6162 2.93913 34 4 34H13.5627C13.6693 34 13.7707 33.9951 13.8773 33.9879C13.0145 33.3065 12.2952 32.4876 11.7547 31.5714ZM16.56 32.7784C15.5817 32.2445 14.7709 31.4901 14.2057 30.5879C13.6406 29.6857 13.3401 28.6661 13.3333 27.6274C13.3333 25.993 14.7493 24.6549 16.56 24.5116C16.6613 24.5043 16.768 24.4994 16.8747 24.4994H28.4587C30.4133 24.4994 32 25.9007 32 27.6274C32 30.4179 29.848 32.8513 26.7787 33.5289L26.5573 33.5774C24.0004 34.1408 21.3329 34.1408 18.776 33.5774L18.5547 33.5289C17.8512 33.3741 17.1783 33.1209 16.56 32.7784ZM26.6667 20.213C25.9501 20.953 25.0031 21.4766 23.9517 21.7144C22.9002 21.9521 21.7943 21.8925 20.7809 21.5437C19.7675 21.1948 18.8948 20.5732 18.279 19.7615C17.6631 18.9499 17.3333 17.9866 17.3333 17C17.3334 16.2141 17.5428 15.44 17.9437 14.7441C18.3445 14.0481 18.9248 13.4511 19.6347 13.0044C20.3446 12.5576 21.163 12.2744 22.0195 12.179C22.8761 12.0837 23.7453 12.179 24.5524 12.4569C25.3596 12.7348 26.0807 13.1869 26.6538 13.7744C27.2269 14.3619 27.635 15.0673 27.8429 15.83C28.0508 16.5928 28.0524 17.39 27.8475 18.1534C27.6426 18.9169 27.2374 19.6236 26.6667 20.213ZM6.66667 25.5C6.66667 25.178 6.80714 24.8691 7.05719 24.6414C7.30724 24.4136 7.64638 24.2857 8 24.2857H9.33333C9.68696 24.2857 10.0261 24.4136 10.2761 24.6414C10.5262 24.8691 10.6667 25.178 10.6667 25.5C10.6667 25.822 10.5262 26.1309 10.2761 26.3586C10.0261 26.5864 9.68696 26.7143 9.33333 26.7143H8C7.64638 26.7143 7.30724 26.5864 7.05719 26.3586C6.80714 26.1309 6.66667 25.822 6.66667 25.5Z" fill="#4628A4"/>
</svg>
