<svg width="33" height="33" viewBox="0 0 33 33" fill="none" xmlns="http://www.w3.org/2000/svg">
<g clip-path="url(#clip0_2_1536)">
<path fill-rule="evenodd" clip-rule="evenodd" d="M17 3C16.0433 3 15.1624 3.23721 14.1993 3.63572C13.2679 4.02158 12.1862 4.5893 10.8405 5.29619L7.57014 7.012C5.91758 7.8786 4.59712 8.57284 3.57395 9.25442C2.51758 9.9613 1.70158 10.7046 1.10856 11.7119C0.517116 12.7161 0.251442 13.8041 0.123349 15.0993C-8.24762e-08 16.3565 0 17.9015 0 19.8466V20.1534C0 22.0985 -8.24762e-08 23.6435 0.123349 24.9007C0.251442 26.1975 0.518698 27.2839 1.10856 28.2881C1.70158 29.2954 2.516 30.0387 3.57553 30.7456C4.59553 31.4272 5.91758 32.1214 7.57014 32.988L10.8405 34.7038C12.1862 35.4107 13.2679 35.9784 14.1993 36.3643C15.164 36.7628 16.0433 37 17 37C17.9567 37 18.8376 36.7628 19.8007 36.3643C20.7321 35.9784 21.8138 35.4107 23.1595 34.7038L26.4299 32.9896C28.0824 32.1214 29.4029 31.4272 30.4245 30.7456C31.484 30.0387 32.2984 29.2954 32.8914 28.2881C33.4829 27.2839 33.7486 26.1959 33.8767 24.9007C34 23.6435 34 22.0985 34 20.1534V19.8466C34 17.9015 34 16.3565 33.8767 15.0993C33.7486 13.8025 33.4813 12.7161 32.8914 11.7119C32.2984 10.7046 31.484 9.9613 30.4245 9.25442C29.4045 8.57284 28.0824 7.8786 26.4299 7.012L23.1595 5.29619C21.8138 4.5893 20.7321 4.02158 19.8007 3.63572C18.836 3.23721 17.9567 3 17 3ZM11.8921 7.42158C13.2995 6.68307 14.2863 6.16754 15.1055 5.82912C15.9025 5.4986 16.4639 5.37209 17 5.37209C17.5377 5.37209 18.0975 5.4986 18.8945 5.82912C19.7137 6.16754 20.6989 6.68307 22.1063 7.42158L25.2691 9.08205C26.9928 9.98502 28.2026 10.6223 29.1087 11.2264C29.5547 11.5253 29.9042 11.802 30.1888 12.0804L24.9212 14.7134L11.4793 7.63823L11.8921 7.42158ZM9.00605 8.93656L8.73088 9.08205C7.00716 9.98502 5.7974 10.6223 4.89284 11.2264C4.50687 11.4766 4.14525 11.7625 3.81274 12.0804L17 18.6748L22.3087 16.018L9.33181 9.18958C9.20926 9.12494 9.099 9.0393 9.00605 8.93656ZM2.6694 14.1599C2.59033 14.4983 2.52865 14.8826 2.48437 15.3301C2.37367 16.4593 2.37209 17.8873 2.37209 19.9067V20.0917C2.37209 22.1127 2.37209 23.5407 2.48437 24.6683C2.59349 25.7705 2.80065 26.4837 3.1533 27.0847C3.50437 27.6808 4.012 28.1853 4.89284 28.7736C5.7974 29.3777 7.00716 30.015 8.73088 30.918L11.8937 32.5784C13.3011 33.3169 14.2863 33.8325 15.1055 34.1709C15.3648 34.2784 15.5973 34.3638 15.814 34.4318V20.7322L2.6694 14.1599ZM18.186 34.4302C18.4027 34.3638 18.6352 34.2784 18.8945 34.1709C19.7137 33.8325 20.6989 33.3169 22.1063 32.5784L25.2691 30.918C26.9928 30.0134 28.2026 29.3777 29.1087 28.7736C29.988 28.1853 30.4956 27.6808 30.8483 27.0847C31.2009 26.4837 31.4065 25.7721 31.5156 24.6683C31.6263 23.5407 31.6279 22.1127 31.6279 20.0933V19.9083C31.6279 17.8873 31.6279 16.4593 31.5156 15.3317C31.48 14.938 31.4182 14.547 31.3306 14.1615L26.093 16.7787V21.5814C26.093 21.896 25.9681 22.1976 25.7456 22.4201C25.5232 22.6425 25.2215 22.7674 24.907 22.7674C24.5924 22.7674 24.2907 22.6425 24.0683 22.4201C23.8459 22.1976 23.7209 21.896 23.7209 21.5814V17.9647L18.186 20.7322V34.4302Z" fill="#4ECB71"/>
</g>
<defs>
<clipPath id="clip0_2_1536">
<rect width="33" height="33" fill="white"/>
</clipPath>
</defs>
</svg>
